<?xml version="1.0" encoding="utf-8"?>
<!-- Generator: Adobe Illustrator 24.0.1, SVG Export Plug-In . SVG Version: 6.00 Build 0)  -->
<svg version="1.1" id="Capa_1" xmlns="http://www.w3.org/2000/svg" xmlns:xlink="http://www.w3.org/1999/xlink" x="0px" y="0px"
	 viewBox="0 0 512 512" style="enable-background:new 0 0 512 512;" xml:space="preserve">
<style type="text/css">
	.st0{fill:#334C66;}
	.st1{fill:#DCE7E3;}
	.st2{fill:#96B6AB;}
	.st3{fill:#B9CEC6;}
	.st4{fill:#6691BB;}
	.st5{fill:#7FB3E6;}
	.st6{fill:#4C6E91;}
</style>
<g>
	<path class="st0" d="M472.9,39.1c-6-6-15.8-6-21.9,0l-54.6,54.6l21.9,21.9L472.9,61C478.9,54.9,478.9,45.2,472.9,39.1z"/>
	<path class="st1" d="M85.5,404.6l184.4-184.4l21.9,21.9L107.4,426.4L85.5,404.6z"/>
	<path class="st2" d="M118.3,393.7l-54.6,32.8l54.6,10.9l16.4-16.4c3-3,3-7.9,0-10.9L118.3,393.7z"/>
	<path class="st3" d="M118.3,393.7l-16.4-16.4c-3-3-7.9-3-10.9,0l-16.4,16.4v43.7L118.3,393.7z"/>
	<path class="st4" d="M9.1,502.9c12.1,12.1,31.6,12.1,43.7,0l65.6-65.6l-21.9-21.9l-54.6,32.8L9.1,502.9z"/>
	<path class="st5" d="M74.6,393.7L9.1,459.2C-3,471.3-3,490.9,9.1,502.9l87.4-87.4L74.6,393.7z"/>
	<path class="st5" d="M44.3,70c-5,4.4-2.4,12.8,4.2,13.5c30.1,3.2,57.4,15,78.4,36c23.3,23.3,35.3,54.6,36.7,88.8
		c0.1,2,0.9,3.8,2.2,5.1L429.5,82.5C323.8-23.2,155-27.3,44.3,70z"/>
	<path class="st0" d="M429.5,82.5l-5.1,358.5c1.9,7.2,3.3,14.7,4.1,22.4c0.7,6.7,9.1,9.3,13.5,4.2C539.3,357,535.2,188.2,429.5,82.5
		L429.5,82.5z"/>
	<path class="st6" d="M429.5,82.5L298.7,346.1c1.3,1.3,3.1,2.2,5.1,2.2c34.2,1.4,65.5,13.4,88.8,36.7c15.6,15.6,26.1,34.7,31.8,56
		C518.4,331.3,522.2,175.3,429.5,82.5L429.5,82.5z"/>
	<path class="st4" d="M429.5,82.5C393,46.1,275.3,104.6,165.9,213.3c1.3,1.3,3.1,2.1,5.1,2.2c34.2,1.4,65.5,13.4,88.8,36.7
		c23.3,23.3,35.3,54.6,36.7,88.8c0.1,2,0.9,3.8,2.2,5.1C407.4,236.7,465.9,119,429.5,82.5L429.5,82.5z"/>
</g>
</svg>
