<svg id="Capa_1" enable-background="new 0 0 496.997 496.997" height="512" viewBox="0 0 496.997 496.997" width="512" xmlns="http://www.w3.org/2000/svg"><g><path d="m459.014 37.98c-5.858-5.858-15.355-5.858-21.213 0l-53.033 53.033 21.213 21.213 53.033-53.033c5.858-5.858 5.858-15.355 0-21.213z" fill="#3c3366"/><path d="m56.566 298.851h253.157v30h-253.157z" fill="#dce0e7" transform="matrix(.707 -.707 .707 .707 -168.284 221.427)"/><path d="m114.853 382.142-53.033 31.82 53.033 10.607 15.91-15.91c2.929-2.929 2.929-7.678 0-10.607z" fill="#96a1b6"/><path d="m114.853 382.142-15.91-15.91c-2.929-2.929-7.678-2.929-10.607 0l-15.91 15.91v42.426z" fill="#b9c1ce"/><path d="m8.787 488.208c11.716 11.716 30.711 11.716 42.426 0l63.64-63.64-21.213-21.213-53.033 31.82z" fill="#7466bb"/><path d="m72.426 382.142-63.64 63.64c-11.716 11.716-11.716 30.711 0 42.426l84.853-84.853z" fill="#907fe6"/><path d="m43.014 67.917c-4.887 4.296-2.37 12.399 4.099 13.09 29.232 3.124 55.744 14.586 76.058 34.901 22.639 22.639 34.285 52.975 35.647 86.195.079 1.93.899 3.673 2.183 4.952l255.873-126.932c-102.595-102.595-266.412-106.657-373.86-12.206z" fill="#907fe6"/><path d="m416.874 80.123-4.905 348.017c1.885 7.034 3.225 14.3 4.02 21.744.691 6.47 8.794 8.986 13.09 4.099 94.456-107.451 90.39-271.265-12.205-373.86z" fill="#3c3366"/><path d="m416.874 80.123-126.932 255.874c1.279 1.283 3.022 2.103 4.952 2.182 33.22 1.362 63.556 13.007 86.195 35.647 15.142 15.142 25.362 33.727 30.881 54.315 91.22-106.538 94.926-257.997 4.904-348.018z" fill="#584c91"/><path d="m416.874 80.123c-35.384-35.384-149.62 21.409-255.874 126.932 1.277 1.273 3.013 2.087 4.934 2.165 33.22 1.362 63.556 13.007 86.195 35.647s34.285 52.975 35.647 86.195c.079 1.921.892 3.657 2.165 4.935 105.528-106.257 162.317-220.49 126.933-255.874z" fill="#7466bb"/></g></svg>